<mxfile host="app.diagrams.net" modified="2022-03-09T02:08:18.567Z" agent="5.0 (Macintosh; Intel Mac OS X 10_15_7) AppleWebKit/537.36 (KHTML, like Gecko) Chrome/98.0.4758.109 Safari/537.36" etag="ivFdrr6YgQ20tUiVYvWJ" version="16.6.6" type="github">
  <diagram name="Page-1" id="e7e014a7-5840-1c2e-5031-d8a46d1fe8dd">
    <mxGraphModel dx="1183" dy="768" grid="1" gridSize="10" guides="1" tooltips="1" connect="1" arrows="1" fold="1" page="1" pageScale="1" pageWidth="1169" pageHeight="826" background="none" math="0" shadow="0">
      <root>
        <mxCell id="0" />
        <mxCell id="1" parent="0" />
        <mxCell id="eEfwFBXC5Yi1musIh-Iq-110" style="edgeStyle=none;rounded=0;orthogonalLoop=1;jettySize=auto;html=1;exitX=0.5;exitY=0.5;exitDx=0;exitDy=0;exitPerimeter=0;entryX=0;entryY=0.375;entryDx=0;entryDy=0;entryPerimeter=0;endArrow=none;" edge="1" parent="1" source="eEfwFBXC5Yi1musIh-Iq-43" target="eEfwFBXC5Yi1musIh-Iq-108">
          <mxGeometry relative="1" as="geometry" />
        </mxCell>
        <mxCell id="eEfwFBXC5Yi1musIh-Iq-117" style="edgeStyle=isometricEdgeStyle;rounded=0;orthogonalLoop=1;jettySize=auto;html=1;exitX=0.5;exitY=0.5;exitDx=0;exitDy=0;exitPerimeter=0;entryX=0;entryY=0;entryDx=0;entryDy=0;endArrow=none；" edge="1" parent="1" source="eEfwFBXC5Yi1musIh-Iq-43" target="eEfwFBXC5Yi1musIh-Iq-107">
          <mxGeometry relative="1" as="geometry" />
        </mxCell>
        <mxCell id="eEfwFBXC5Yi1musIh-Iq-124" style="edgeStyle=none;rounded=0;orthogonalLoop=1;jettySize=auto;html=1;exitX=1;exitY=1;exitDx=0;exitDy=0;exitPerimeter=0;entryX=0;entryY=0;entryDx=0;entryDy=0;endArrow=none;" edge="1" parent="1" source="eEfwFBXC5Yi1musIh-Iq-43" target="eEfwFBXC5Yi1musIh-Iq-123">
          <mxGeometry relative="1" as="geometry" />
        </mxCell>
        <mxCell id="eEfwFBXC5Yi1musIh-Iq-43" value="用户" style="shape=umlActor;verticalLabelPosition=bottom;verticalAlign=top;html=1;outlineConnect=0;" vertex="1" parent="1">
          <mxGeometry x="160" y="300" width="30" height="60" as="geometry" />
        </mxCell>
        <mxCell id="eEfwFBXC5Yi1musIh-Iq-45" value="" style="endArrow=none;html=1;rounded=0;exitX=0.75;exitY=0.1;exitDx=0;exitDy=0;exitPerimeter=0;" edge="1" parent="1" source="eEfwFBXC5Yi1musIh-Iq-43" target="eEfwFBXC5Yi1musIh-Iq-46">
          <mxGeometry width="50" height="50" relative="1" as="geometry">
            <mxPoint x="300" y="210" as="sourcePoint" />
            <mxPoint x="440" y="80" as="targetPoint" />
          </mxGeometry>
        </mxCell>
        <mxCell id="eEfwFBXC5Yi1musIh-Iq-46" value="存款" style="ellipse;whiteSpace=wrap;html=1;" vertex="1" parent="1">
          <mxGeometry x="380" y="40" width="120" height="80" as="geometry" />
        </mxCell>
        <mxCell id="eEfwFBXC5Yi1musIh-Iq-52" value="" style="endArrow=none;html=1;rounded=0;exitX=1;exitY=0.3333333333333333;exitDx=0;exitDy=0;exitPerimeter=0;" edge="1" parent="1" source="eEfwFBXC5Yi1musIh-Iq-43" target="eEfwFBXC5Yi1musIh-Iq-54">
          <mxGeometry width="50" height="50" relative="1" as="geometry">
            <mxPoint x="300" y="240" as="sourcePoint" />
            <mxPoint x="660" y="120" as="targetPoint" />
          </mxGeometry>
        </mxCell>
        <mxCell id="eEfwFBXC5Yi1musIh-Iq-54" value="打印交易凭条" style="ellipse;whiteSpace=wrap;html=1;" vertex="1" parent="1">
          <mxGeometry x="600" y="80" width="120" height="80" as="geometry" />
        </mxCell>
        <mxCell id="eEfwFBXC5Yi1musIh-Iq-80" value="" style="endArrow=classic;dashed=1;html=1;rounded=0;entryX=1;entryY=0.5;entryDx=0;entryDy=0;" edge="1" parent="1" target="eEfwFBXC5Yi1musIh-Iq-46">
          <mxGeometry width="50" height="50" relative="1" as="geometry">
            <mxPoint x="600" y="110" as="sourcePoint" />
            <mxPoint x="660" y="70" as="targetPoint" />
          </mxGeometry>
        </mxCell>
        <mxCell id="eEfwFBXC5Yi1musIh-Iq-81" value="&amp;lt;&amp;lt;extend&amp;gt;&amp;gt;" style="edgeLabel;html=1;align=center;verticalAlign=middle;resizable=0;points=[];" vertex="1" connectable="0" parent="eEfwFBXC5Yi1musIh-Iq-80">
          <mxGeometry x="0.4077" y="-1" relative="1" as="geometry">
            <mxPoint x="20" y="12" as="offset" />
          </mxGeometry>
        </mxCell>
        <mxCell id="eEfwFBXC5Yi1musIh-Iq-89" value="" style="endArrow=classic;dashed=1;html=1;rounded=0;exitX=0.358;exitY=1.025;exitDx=0;exitDy=0;exitPerimeter=0;entryX=0.5;entryY=0;entryDx=0;entryDy=0;" edge="1" parent="1" source="eEfwFBXC5Yi1musIh-Iq-54" target="eEfwFBXC5Yi1musIh-Iq-91">
          <mxGeometry width="50" height="50" relative="1" as="geometry">
            <mxPoint x="650" y="240" as="sourcePoint" />
            <mxPoint x="570" y="240" as="targetPoint" />
          </mxGeometry>
        </mxCell>
        <mxCell id="eEfwFBXC5Yi1musIh-Iq-90" value="&amp;lt;&amp;lt;extend&amp;gt;&amp;gt;" style="edgeLabel;html=1;align=center;verticalAlign=middle;resizable=0;points=[];" vertex="1" connectable="0" parent="eEfwFBXC5Yi1musIh-Iq-89">
          <mxGeometry x="0.4077" y="-1" relative="1" as="geometry">
            <mxPoint x="39" y="-26" as="offset" />
          </mxGeometry>
        </mxCell>
        <mxCell id="eEfwFBXC5Yi1musIh-Iq-91" value="取款" style="ellipse;whiteSpace=wrap;html=1;" vertex="1" parent="1">
          <mxGeometry x="440" y="208.21" width="120" height="80" as="geometry" />
        </mxCell>
        <mxCell id="eEfwFBXC5Yi1musIh-Iq-93" value="" style="endArrow=none;html=1;rounded=0;entryX=0;entryY=0.375;entryDx=0;entryDy=0;entryPerimeter=0;exitX=0.5;exitY=0.5;exitDx=0;exitDy=0;exitPerimeter=0;" edge="1" parent="1" source="eEfwFBXC5Yi1musIh-Iq-43" target="eEfwFBXC5Yi1musIh-Iq-91">
          <mxGeometry width="50" height="50" relative="1" as="geometry">
            <mxPoint x="300" y="250" as="sourcePoint" />
            <mxPoint x="660" y="230" as="targetPoint" />
          </mxGeometry>
        </mxCell>
        <mxCell id="eEfwFBXC5Yi1musIh-Iq-94" value="" style="endArrow=classic;dashed=1;html=1;rounded=0;" edge="1" parent="1" source="eEfwFBXC5Yi1musIh-Iq-46" target="eEfwFBXC5Yi1musIh-Iq-96">
          <mxGeometry width="50" height="50" relative="1" as="geometry">
            <mxPoint x="720" y="210" as="sourcePoint" />
            <mxPoint x="750" y="320" as="targetPoint" />
          </mxGeometry>
        </mxCell>
        <mxCell id="eEfwFBXC5Yi1musIh-Iq-95" value="&amp;lt;&amp;lt;include&amp;gt;&amp;gt;" style="edgeLabel;html=1;align=center;verticalAlign=middle;resizable=0;points=[];" vertex="1" connectable="0" parent="eEfwFBXC5Yi1musIh-Iq-94">
          <mxGeometry x="0.4077" y="-1" relative="1" as="geometry">
            <mxPoint x="-1" y="63" as="offset" />
          </mxGeometry>
        </mxCell>
        <mxCell id="eEfwFBXC5Yi1musIh-Iq-96" value="验证" style="ellipse;whiteSpace=wrap;html=1;" vertex="1" parent="1">
          <mxGeometry x="740" y="300" width="120" height="80" as="geometry" />
        </mxCell>
        <mxCell id="eEfwFBXC5Yi1musIh-Iq-97" value="" style="endArrow=classic;dashed=1;html=1;rounded=0;entryX=-0.025;entryY=0.413;entryDx=0;entryDy=0;entryPerimeter=0;exitX=0.933;exitY=0.8;exitDx=0;exitDy=0;exitPerimeter=0;" edge="1" parent="1" source="eEfwFBXC5Yi1musIh-Iq-91" target="eEfwFBXC5Yi1musIh-Iq-96">
          <mxGeometry width="50" height="50" relative="1" as="geometry">
            <mxPoint x="680" y="310" as="sourcePoint" />
            <mxPoint x="580" y="250" as="targetPoint" />
          </mxGeometry>
        </mxCell>
        <mxCell id="eEfwFBXC5Yi1musIh-Iq-99" value="&amp;lt;&amp;lt;include&amp;gt;&amp;gt;" style="edgeLabel;html=1;align=center;verticalAlign=middle;resizable=0;points=[];" vertex="1" connectable="0" parent="1">
          <mxGeometry x="662.4301662636444" y="248.20921018690308" as="geometry" />
        </mxCell>
        <mxCell id="eEfwFBXC5Yi1musIh-Iq-103" value="" style="endArrow=none;html=1;rounded=0;exitX=0.5;exitY=0.5;exitDx=0;exitDy=0;exitPerimeter=0;entryX=0;entryY=0.5;entryDx=0;entryDy=0;" edge="1" parent="1" source="eEfwFBXC5Yi1musIh-Iq-43" target="eEfwFBXC5Yi1musIh-Iq-96">
          <mxGeometry width="50" height="50" relative="1" as="geometry">
            <mxPoint x="610" y="280" as="sourcePoint" />
            <mxPoint x="660" y="230" as="targetPoint" />
          </mxGeometry>
        </mxCell>
        <mxCell id="eEfwFBXC5Yi1musIh-Iq-105" value="" style="edgeStyle=none;rounded=0;orthogonalLoop=1;jettySize=auto;html=1;endArrow=none;" edge="1" parent="1" source="eEfwFBXC5Yi1musIh-Iq-104" target="eEfwFBXC5Yi1musIh-Iq-96">
          <mxGeometry relative="1" as="geometry" />
        </mxCell>
        <mxCell id="eEfwFBXC5Yi1musIh-Iq-106" style="edgeStyle=none;rounded=0;orthogonalLoop=1;jettySize=auto;html=1;exitX=0;exitY=0.3333333333333333;exitDx=0;exitDy=0;exitPerimeter=0;endArrow=none;" edge="1" parent="1" source="eEfwFBXC5Yi1musIh-Iq-104" target="eEfwFBXC5Yi1musIh-Iq-54">
          <mxGeometry relative="1" as="geometry" />
        </mxCell>
        <mxCell id="eEfwFBXC5Yi1musIh-Iq-104" value="ATM机&lt;br&gt;" style="shape=umlActor;verticalLabelPosition=bottom;verticalAlign=top;html=1;outlineConnect=0;" vertex="1" parent="1">
          <mxGeometry x="950" y="310" width="30" height="60" as="geometry" />
        </mxCell>
        <mxCell id="eEfwFBXC5Yi1musIh-Iq-118" style="rounded=0;orthogonalLoop=1;jettySize=auto;html=1;exitX=1;exitY=0;exitDx=0;exitDy=0;entryX=0.5;entryY=1;entryDx=0;entryDy=0;dashed=1;" edge="1" parent="1" source="eEfwFBXC5Yi1musIh-Iq-107" target="eEfwFBXC5Yi1musIh-Iq-96">
          <mxGeometry relative="1" as="geometry">
            <mxPoint x="790" y="390" as="targetPoint" />
          </mxGeometry>
        </mxCell>
        <mxCell id="eEfwFBXC5Yi1musIh-Iq-107" value="修改密码" style="ellipse;whiteSpace=wrap;html=1;" vertex="1" parent="1">
          <mxGeometry x="465" y="490" width="120" height="80" as="geometry" />
        </mxCell>
        <mxCell id="eEfwFBXC5Yi1musIh-Iq-111" style="edgeStyle=none;rounded=0;orthogonalLoop=1;jettySize=auto;html=1;exitX=1;exitY=0.5;exitDx=0;exitDy=0;entryX=0.033;entryY=0.775;entryDx=0;entryDy=0;entryPerimeter=0;dashed=1;" edge="1" parent="1" source="eEfwFBXC5Yi1musIh-Iq-108" target="eEfwFBXC5Yi1musIh-Iq-96">
          <mxGeometry relative="1" as="geometry" />
        </mxCell>
        <mxCell id="eEfwFBXC5Yi1musIh-Iq-108" value="查询余额" style="ellipse;whiteSpace=wrap;html=1;" vertex="1" parent="1">
          <mxGeometry x="390" y="370" width="120" height="80" as="geometry" />
        </mxCell>
        <mxCell id="eEfwFBXC5Yi1musIh-Iq-112" value="&amp;lt;&amp;lt;include&amp;gt;&amp;gt;" style="edgeLabel;html=1;align=center;verticalAlign=middle;resizable=0;points=[];" vertex="1" connectable="0" parent="1">
          <mxGeometry x="619.9961048631824" y="400.0015868861067" as="geometry" />
        </mxCell>
        <mxCell id="eEfwFBXC5Yi1musIh-Iq-120" value="&lt;span style=&quot;color: rgb(0 , 0 , 0) ; font-family: &amp;#34;helvetica&amp;#34; ; font-size: 11px ; font-style: normal ; font-weight: 400 ; letter-spacing: normal ; text-align: center ; text-indent: 0px ; text-transform: none ; word-spacing: 0px ; background-color: rgb(255 , 255 , 255) ; display: inline ; float: none&quot;&gt;&amp;lt;&amp;lt;owner&amp;gt;&amp;gt;&lt;/span&gt;" style="text;whiteSpace=wrap;html=1;" vertex="1" parent="1">
          <mxGeometry x="650" y="440" width="90" height="30" as="geometry" />
        </mxCell>
        <mxCell id="eEfwFBXC5Yi1musIh-Iq-126" style="edgeStyle=none;rounded=0;orthogonalLoop=1;jettySize=auto;html=1;exitX=1;exitY=0.5;exitDx=0;exitDy=0;entryX=0.5;entryY=1;entryDx=0;entryDy=0;dashed=1;" edge="1" parent="1" source="eEfwFBXC5Yi1musIh-Iq-123" target="eEfwFBXC5Yi1musIh-Iq-96">
          <mxGeometry relative="1" as="geometry" />
        </mxCell>
        <mxCell id="eEfwFBXC5Yi1musIh-Iq-127" value="&amp;lt;&amp;lt;include&amp;gt;&amp;gt;" style="edgeLabel;html=1;align=center;verticalAlign=middle;resizable=0;points=[];" vertex="1" connectable="0" parent="eEfwFBXC5Yi1musIh-Iq-126">
          <mxGeometry x="-0.128" y="-3" relative="1" as="geometry">
            <mxPoint x="1" as="offset" />
          </mxGeometry>
        </mxCell>
        <mxCell id="eEfwFBXC5Yi1musIh-Iq-128" style="edgeStyle=none;rounded=0;orthogonalLoop=1;jettySize=auto;html=1;exitX=1;exitY=0.5;exitDx=0;exitDy=0;entryX=0;entryY=1;entryDx=0;entryDy=0;entryPerimeter=0;endArrow=none" edge="1" parent="1" source="eEfwFBXC5Yi1musIh-Iq-123" target="eEfwFBXC5Yi1musIh-Iq-104">
          <mxGeometry relative="1" as="geometry" />
        </mxCell>
        <mxCell id="eEfwFBXC5Yi1musIh-Iq-123" value="资金转账" style="ellipse;whiteSpace=wrap;html=1;" vertex="1" parent="1">
          <mxGeometry x="410" y="600" width="120" height="80" as="geometry" />
        </mxCell>
      </root>
    </mxGraphModel>
  </diagram>
</mxfile>
